<svg width="749" height="331" fill="none" xmlns="http://www.w3.org/2000/svg"><path fill-rule="evenodd" clip-rule="evenodd" d="M392 19l6-5 9 2c-1-3-2-7-1-10s4-5 8-5c7-1 20-3 23 4l-3 7 1 3 2 1 2-1c1-2 1-3 3-3h5c3 1 6 5 10 5l11-2c2 1 4 1 5 3l4 4c2 2 104 2 108 3a85 85 0 003 0l2 2-113 1h-62a119 119 0 01-20-3c-2-1-3-3-3-6" fill="#DDF0FD"/><mask id="a" maskUnits="userSpaceOnUse" x="598" y="98" width="151" height="30"><path fill-rule="evenodd" clip-rule="evenodd" d="M749 98H599v29h150V98z" fill="#fff"/></mask><g mask="url(#a)"><path fill-rule="evenodd" clip-rule="evenodd" d="M599 121c0-2 2-3 4-3l9 1 6-1 1-3 1-2 6-1 4 1h4c6-1 6-6 8-10l6-4h8l8 2a58 58 0 0114 8c2 2 3 4 6 4 2 2 5 1 8 1h9c5 1 9 4 10 8v2a814 814 0 0036 1h1v1h-1a2433 2433 0 01-145-1c-2 0-4-2-3-4" fill="#DDF0FD"/></g><mask id="b" maskUnits="userSpaceOnUse" x="1" y="107" width="162" height="53"><path fill-rule="evenodd" clip-rule="evenodd" d="M163 108H1v51h162v-51z" fill="#fff"/></mask><g mask="url(#b)"><path fill-rule="evenodd" clip-rule="evenodd" d="M2 152c1-3 6-3 9-3 7 0 7-9 8-14 0-5 1-10 3-14 4-8 12-14 20-13 10 2 15 12 18 20 2 5 5 16 13 12 3-2 5-6 9-6 4-1 6 3 7 6 2 3 3 5 6 5h10l1 1c-1 6 12 5 15 6l14 1 27 2v2a386 386 0 01-4 0l-76 1-39 1H5c-2-1-5-4-3-7" fill="#DDF0FD"/></g><mask id="c" maskUnits="userSpaceOnUse" x="261" y="6" width="156" height="249"><path fill-rule="evenodd" clip-rule="evenodd" d="M416 6H261v249h155V6z" fill="#fff"/></mask><g mask="url(#c)"><path fill-rule="evenodd" clip-rule="evenodd" d="M315 76l13 3 1 4c0 4-1 6-5 6-6 1-10 4-14 9l16 4v5c0 2 0 4-4 4-5 1-10 4-15 10l17 4v9s-15 4-21 11l18 5v13s-19 5-26 15l24 6v12c-9-2-17 3-25 7l-33 18v2l7 4 12 7h14v21h91l1-22c7 3 11-3 15-8l6-2 9-5c-16-12-34-21-54-25v-9l22-8c-8-9-15-13-25-13v-13l18-7c-6-7-20-10-20-10v-8l15-6c-5-6-18-9-18-9v-8l16-6c-5-6-11-8-19-8v-9l13-4v-2l-16-6v-8l11-3v-2l-12-5v-7l10-4c-2-5-7-6-11-7v-7l8-3v-2l-8-2c-4 0-4-1-4-4l-2-7-2-1-2 11-13 4v2l9 2v7c-5 1-10 2-13 8l12 3v5c1 3-1 4-3 4l-10 4v2c4 1 11-2 15-1 2 6-3 11-9 13l-9 5v2" fill="#DDF0FD"/></g><mask id="d" maskUnits="userSpaceOnUse" x="123" y="22" width="129" height="269"><path fill-rule="evenodd" clip-rule="evenodd" d="M252 22H123v268h129V22z" fill="#fff"/></mask><g mask="url(#d)"><path fill-rule="evenodd" clip-rule="evenodd" d="M173 234l7-27 2-2h13l7 29h-29zm53 0c-4 1-6-2-8-6l-11-32 1-6c1-2 2-4-1-5l-2-4a829 829 0 01-11-124c2-6 2-11-3-15l-2-5-1-15-2 16-2 4c-4 5-5 9-3 15l1 7a828 828 0 01-14 121c-3 1-2 2-1 5l1 6-13 35-6 3-1 1c2 9-2 16-7 23l-15 27-3 4h26c2-10 7-19 16-26 8-5 16-7 26-6 18 1 29 11 35 33h26l-2-5c-7-11-14-22-19-33-3-5-4-12-5-18z" fill="#DDF0FD"/></g><mask id="e" maskUnits="userSpaceOnUse" x="424" y="161" width="270" height="124"><path fill-rule="evenodd" clip-rule="evenodd" d="M694 161H424v123h270V161z" fill="#fff"/></mask><g mask="url(#e)"><path fill-rule="evenodd" clip-rule="evenodd" d="M441 281v-14c0-3 2-5 6-6 3 0 6 3 6 6v14h-12zm45 0v-13c1-4 2-6 6-7 4 0 6 3 6 6l1 14h-13zm154 0l1-14c0-3 2-6 6-6s5 3 5 6l1 14h-13zm-176 0v-14c0-3 2-6 6-6 3 0 6 3 6 6v14h-12zm199 0v-14c0-3 2-6 6-6s6 3 6 6v14h-12zm-45 0v-14c0-3 3-6 6-5 2 0 5 3 6 5v14h-12zm-46-1h-26v-34c0-7 5-11 12-11 8 0 13 4 14 10v35zm34-44h-18v-13-24c0-3-1-5-5-5l-3-1c-4-3-6-7-10-9-8-4-11-11-11-20l-1-3v4l-2 13-3 2-19 15c-4-1-5-1-5 5v37h-18s2-24-12-33c-5-4-7-8-7-14v-4l-3 12-2 4-8 5c-9 8-7 29-7 29h-14s4-21-6-29l-4 5-2 6v19h-8v-27l-3-7-4-5-5 5-2 8v73h270v-5l-1-67-1-9-1-3-4-5-5 5c-2 3-3 5-2 9v27h-9v-16c2-7-6-8-6-13l-4 5-2 6v19h-14l2-5c1-9-1-15-7-21l-5-5c-7-3-9-9-9-16v-5l-3 14-3 4-8 7c-8 7-10 17-6 27v-1z" fill="#DDF0FD"/></g><path fill-rule="evenodd" clip-rule="evenodd" d="M432 331l4-62c-3-17-13-32-36-32-51-1-72 7-71 47l9 47h94z" fill="#fff"/><path fill-rule="evenodd" clip-rule="evenodd" d="M176 255l-20-1-19-1c-5-1-14-5-14-3-1 1 7 6 8 7 1 2-6 1-10 0s-13-3-13-1 7 4 9 4c2 1 7 3 3 2-3 0-13-2-14-1-1 2 7 4 10 5 3 0 6 3 0 2h-10l6 3c4 1 8 2 4 2s-10-1-9 1l71 13-2-32z" fill="#F8BBB4"/><path d="M133 259c1 1 4 3 10 4M124 262c1 1-2 13-2 13" stroke="#000" stroke-width=".7" stroke-linecap="round"/><path fill-rule="evenodd" clip-rule="evenodd" d="M379 241c-1 2-56-27-126-16-26 4-60 17-77 24l-10 5-6 40c-1-3 74 26 94 30 61 13 101-5 101-5s46-44 24-78z" fill="#fff"/><path d="M338 229c1 15 4 28 2 43M329 227c0 14 3 50 0 64M312 327c10-33 6-102 6-102M299 329c9-29 6-106 6-106M291 223l-1 106M278 223s-6 70 4 105M263 224s-3 62 9 103M253 225s-8 46 9 101M241 227s-9 36 7 95M223 232s-1 37 9 85M211 236c-2 13-1 39 5 76M198 241s-5 19 2 66M187 245s-6 9 3 58M176 249s-3 20 0 49" stroke="#F85C39" stroke-width=".6"/><path fill-rule="evenodd" clip-rule="evenodd" d="M501 148l16-15 13-16c3-4 7-13 9-13 2 1-2 11-1 12 0 2 5-4 7-8 3-3 9-12 10-10 1 1-3 8-4 10s-3 7-1 4c3-3 9-12 11-11l-5 10c-1 3-2 8 1 2 4-5 8-9 9-8l-3 8c-2 3-4 7-1 4 2-3 7-8 7-6 1 1-44 64-44 64l-24-27z" fill="#272626"/><path d="M538 119c0 1-1 5-5 11M545 117l12 8" stroke="#000" stroke-width=".8" stroke-linecap="round"/><path fill-rule="evenodd" clip-rule="evenodd" d="M427 301s22 8 67-40c24-25 39-98 39-98l-24-24s-53 18-79 47c-38 43-30 54-30 54s-9 53 27 61" fill="#fff"/><path d="M530 175s-22-19-30-32M527 187s-27-20-37-40M525 196s-27-12-47-43M521 206s-33-10-55-47M517 218c-3-1-46-15-64-51M514 228s-52-12-71-54M509 239s-45-7-79-53M503 249s-53-6-81-53M494 261s-51-10-82-55M484 272s-34-4-72-43M473 281c-5-1-36-7-66-40M462 289s-14 0-32-15M446 298s-7 0-15-9" stroke="#F85C39" stroke-width=".6"/><path fill-rule="evenodd" clip-rule="evenodd" d="M575 147l30-44c3-4 1-10-3-13l-54-37c-4-3-10-2-12 2l-30 44 69 48z" fill="#247B9F"/><path fill-rule="evenodd" clip-rule="evenodd" d="M572 145l30-44c2-3 1-6-1-8-3-1-6-1-8 2l-30 44" fill="#fff"/><path d="M566 141l33-48M569 143l33-48" stroke="#2E3190" stroke-width=".5"/><path d="M540 57l50 34M543 76l-15 22M546 83l-10 15M574 109l-4 6" stroke="#2E3190" stroke-width=".7"/><path fill-rule="evenodd" clip-rule="evenodd" d="M602 120l-2-7 7-1-14-10-6 8 15 10z" fill="#05293C"/><path fill-rule="evenodd" clip-rule="evenodd" d="M517 133l13-16c3-4 7-13 9-13 1 1 0 6-1 10l-1 5v4l1 1c1 4 4 8 8 8l7 3-28 40-24-27 16-15" fill="#F8BBB4"/><path d="M538 121c0 2-1 6-5 11" stroke="#000" stroke-width=".8" stroke-linecap="round"/><path fill-rule="evenodd" clip-rule="evenodd" d="M358 228c-2-4-1-8 2-11h-1l-3-15c0-5 2-9 5-12 5-8 13-13 22-12h2l1 1c6 3 12 7 16 12 5 6 10 13 12 20 2 6 1 13-2 18-1 1-8 27-13 30-4 3-9 6-14 5-4 0-6-1-9-3-5-3-5-9-5-10l2-15c-6 2-13-3-15-8" fill="#F8BBB4"/><path fill-rule="evenodd" clip-rule="evenodd" d="M412 229s-11 9-17 8c0 0 1 9 12 4l5-12zM361 228l2-4h1l4 6-1 1-2-2-4-1M359 187l4-5c8-8 20-5 30-2l-2 3-1 1-18-1c2 6 3 13-1 18-2 3-5 8-8 10l-8 3-1-1c0-7 0-16 3-23l2-3" fill="#05293C"/><path fill-rule="evenodd" clip-rule="evenodd" d="M136 98c8-5 17-7 26-7 19-1 37 8 50 21 8 7 16 15 27 16 9 1 19-2 28 0s15 9 20 16c7 8 14 15 25 15 11 1 21 0 30 6 7 5 17 22 17 23l-1 2c-7 1-15-3-21-5-5-2-9-2-14 0l-12 7c-8 4-16 3-24 0-9-4-18-7-28-7-19 2-36 12-54 12-4 0-7 0-9-2a459 459 0 00-66-72c-3-3-6-5-7-9-1-8 8-13 13-16" fill="#05293C"/></svg>